<?xml version="1.0" encoding="utf-8"?>
<!-- Generator: Adobe Illustrator 18.0.0, SVG Export Plug-In . SVG Version: 6.00 Build 0)  -->
<!DOCTYPE svg PUBLIC "-//W3C//DTD SVG 1.1//EN" "http://www.w3.org/Graphics/SVG/1.1/DTD/svg11.dtd">
<svg version="1.1" id="Layer_1" xmlns="http://www.w3.org/2000/svg" xmlns:xlink="http://www.w3.org/1999/xlink" x="0px" y="0px"
	 viewBox="0 0 612 792" enable-background="new 0 0 612 792" xml:space="preserve">
<g id="Logo" display="none">
	<g id="Colours" display="inline">
	</g>
</g>
<g id="Layer_3">
	<g>
		<g>
			<defs>
				<circle id="SVGID_1_" cx="308.6" cy="354.5" r="151.7"/>
			</defs>
			<clipPath id="SVGID_2_">
				<use xlink:href="#SVGID_1_"  overflow="visible"/>
			</clipPath>
			<g clip-path="url(#SVGID_2_)">
				<polygon fill="#69BC45" stroke="#FFFFFF" stroke-width="3" stroke-miterlimit="10" points="275.1,423 284.6,386.1 271.8,378.8 
					224,374 204.4,396.1 212,416.4 244.4,448 266.2,423 				"/>
				<polygon fill="#69BC45" points="349.2,332.4 361.7,307.5 261.8,306.2 268.4,337.5 299.7,344.5 				"/>
				<polygon fill="#69BC45" points="256.3,208.3 257.9,291.5 307.1,287.8 345.2,265 359,239.4 323.3,241.4 297.2,238.5 289.9,201.7 
									"/>
				<polygon fill="#F9A61A" points="241.6,340.5 246,362.9 225.4,374 205.8,396.1 163.1,404.5 152.1,342.3 159.4,338.6 				"/>
				<polygon fill="#ED2B2B" points="350.9,331.3 380.8,278.6 408.7,273.1 440.4,273.5 475.5,339.7 442.2,374.3 429.7,385.8 
					393.3,397.2 356.8,396.8 355.7,375.5 355.7,344.5 				"/>
				<polygon fill="#69BC45" points="391.8,397.2 428.3,385.8 463.2,350.8 453.7,404.9 445.9,405.6 426.4,413.4 396.6,419.6 				"/>
				<polygon fill="#ED2B2B" points="242.7,448.4 266.2,423 293.5,423 296.8,506.2 268.1,502.5 267.7,493.7 251.9,479.3 248.2,452.4 
									"/>
				<polygon fill="#AA83BA" points="229.8,374 280.2,350 315.9,341.6 325.9,369.6 291.3,387.2 271.4,377.3 				"/>
				<polygon fill="#AA83BA" points="349.1,411.2 340.6,430 371.2,440.6 444.8,433.6 456.6,403.1 428.6,411.9 380.8,422.2 				"/>
				<polygon fill="#AA83BA" points="289.4,200.2 297.2,238.5 321.5,242.5 359,239.4 407.3,273.1 442.6,273.5 401.7,219 343.2,193.2 
									"/>
				<polygon fill="#ED2B2B" points="241.6,340.5 244.5,363.3 293.5,345.6 273.6,338.3 				"/>
				<polygon fill="#F9A61A" points="309.1,300.9 311,283.2 345.2,265 361.6,234.2 405.8,270.5 381.3,275.4 373.4,292.1 				"/>
				<polygon fill="#F9A61A" points="312,507.6 312.5,422.7 340.6,430 333.1,461 340.5,505.7 				"/>
				<polygon fill="#F9A61A" points="241.8,338.3 238.4,326 262.4,310.8 272.7,341.2 				"/>
				<polygon fill="#F9A61A" points="353.7,398.7 393.3,397.2 396.6,419.6 378.8,424.6 349.1,411.2 				"/>
				<polygon fill="#69BC45" points="337.1,506.2 334.1,481.1 339.5,437.9 364.5,454.6 414.6,475.2 				"/>
				<polygon fill="#554C9F" points="160.3,405.5 204.5,397.7 212,416.4 248.2,452.4 251.6,475.8 267.7,493.7 268.1,502.5 
					193.7,473.8 				"/>
				<polygon fill="#554C9F" points="315.9,341.6 349.2,332.4 355.7,344.5 354.8,357.4 322.3,358.9 				"/>
				<polygon fill="#554C9F" points="341.5,431.6 371.2,440.6 443.1,433 406.3,472.3 371,461 338.6,440.4 				"/>
				<polygon fill="#69BC45" points="153.4,339.7 238.8,337.3 230.5,312.7 213.8,310.8 193.2,248.4 168.6,274 				"/>
				<polygon fill="#ED2B2B" points="194.2,254.8 213.8,310.8 230.5,312.7 237.9,328 262.4,310.8 252.6,298.5 247.2,204.7 				"/>
				<polygon fill="#F9A61A" points="275.1,423 284.6,386.1 294.8,392.2 295.3,422.7 				"/>
				<polygon fill="#ED2B2B" points="309.5,389.3 313.5,369.7 327.2,374.1 353.7,398.7 345.9,420.2 316.5,390.3 				"/>
				<polygon fill="#F9A61A" points="343.9,419.3 314,389.8 308.6,421.7 340.6,430 				"/>
				<polygon fill="#AA83BA" points="327.2,374.1 355.7,375.5 353.7,398.7 329.2,381 				"/>
				<polygon fill="#8BD5F6" points="314.5,580.6 289.4,580.6 289.4,353.7 376.3,353.7 376.3,311 234.2,311 234.2,207.2 259.2,207.2 
					259.2,286 401.4,286 401.4,378.8 314.5,378.8 				"/>
				<polyline fill="none" stroke="#FFFFFF" stroke-width="7" stroke-miterlimit="10" points="338,505.8 334.7,479.3 336.4,445 
					342.8,424.8 355.3,398.3 355.3,343.4 350.6,331.3 357.2,314.3 380.8,278.6 414.6,272.7 451.8,272.7 				"/>
				<polyline fill="none" stroke="#FFFFFF" stroke-width="7" stroke-miterlimit="10" points="164.8,403 204.4,396.1 222,376.2 
					242.7,365.5 276.9,351.9 327,339.7 351,332.4 				"/>
				<polyline fill="none" stroke="#FFFFFF" stroke-width="7" stroke-miterlimit="10" points="204.4,396.1 212.5,417.8 248.2,453.5 
					251.5,477.8 266.6,495.1 268.4,508 				"/>
				<polyline fill="none" stroke="#FFFFFF" stroke-width="7" stroke-miterlimit="10" points="153.6,339.4 268.4,339.4 299.7,346.4 
									"/>
				<path fill="none" stroke="#FFFFFF" stroke-width="7" stroke-miterlimit="10" d="M241.2,339.4l-10.7-26.9l-16.6-2.2
					c0,0-21.1-62.9-20.6-58.9"/>
				<polyline fill="none" stroke="#FFFFFF" stroke-width="7" stroke-miterlimit="10" points="355.3,398.3 393.3,398.3 430.1,386.5 
					468.4,349.7 				"/>
				<polyline fill="none" stroke="#FFFFFF" stroke-width="7" stroke-miterlimit="10" points="341.1,430.5 373.4,441 451.8,432.2 
									"/>
				<polyline fill="none" stroke="#FFFFFF" stroke-width="7" stroke-miterlimit="10" points="338.6,438 372.6,459 420.5,475.6 				
					"/>
				<polyline fill="none" stroke="#FFFFFF" stroke-width="5" stroke-miterlimit="10" points="345.2,419.9 315.9,389.2 290.2,389.2 
					271.8,378.8 224,375.2 				"/>
				<polyline fill="none" stroke="#FFFFFF" stroke-width="5" stroke-miterlimit="10" points="341.1,430.5 319.3,423 266.2,423 
					242.7,448 				"/>
				<polyline fill="none" stroke="#FFFFFF" stroke-width="5" stroke-miterlimit="10" points="352.8,398.3 328.8,378.8 315.9,342.4 
									"/>
				<line fill="none" stroke="#FFFFFF" stroke-width="5" stroke-miterlimit="10" x1="284.6" y1="386.1" x2="275.1" y2="423"/>
				<polyline fill="none" stroke="#FFFFFF" stroke-width="5" stroke-miterlimit="10" points="349.6,410.5 379.6,423 426,413.7 
					458.4,403 				"/>
				<polyline fill="none" stroke="#FFFFFF" stroke-width="5" stroke-miterlimit="10" points="409.8,273.6 360.9,239.2 321.5,242.5 
					297.2,239.2 288.7,195.8 				"/>
				<path fill="none" stroke="#FFFFFF" stroke-width="3" stroke-miterlimit="10" d="M381.9,400.1"/>
				<line fill="none" stroke="#FFFFFF" stroke-width="3" stroke-miterlimit="10" x1="241.2" y1="339.4" x2="244.4" y2="364.8"/>
				<polyline fill="none" stroke="#FFFFFF" stroke-width="3" stroke-miterlimit="10" points="236.4,327.3 262.7,310.5 270.4,338 
									"/>
				<line fill="none" stroke="#FFFFFF" stroke-width="3" stroke-miterlimit="10" x1="393.4" y1="400.1" x2="396.4" y2="418.2"/>
				<polyline fill="none" stroke="#FFFFFF" stroke-width="3" stroke-miterlimit="10" points="316.3,340.8 308.6,308.1 310.8,284.1 
					345.2,265 359,239.4 				"/>
			</g>
		</g>
		<g>
			
				<circle id="Circle_1_" fill="none" stroke="#FFFFFF" stroke-width="10" stroke-miterlimit="10" cx="308.6" cy="354.5" r="151.7"/>
		</g>
	</g>
	<g>
		<path fill="#FFFFFF" d="M20.7,534.5L38,579.1l18.1-47.8l17.4,47.8l18.4-44.6h10.9l-29.8,70.8L56,558.2l-17.9,47.3L9.8,534.5H20.7z
			"/>
		<path fill="#FFFFFF" d="M144.6,585h-28.5l-7.4,16.2H97.9l33-70.8l31.8,70.8h-11L144.6,585z M140.5,575.5l-9.9-22.7l-10.4,22.7
			H140.5z"/>
		<path fill="#FFFFFF" d="M181,534.5v57.1h19.6v9.5h-29.7v-66.6H181z"/>
		<path fill="#FFFFFF" d="M220.2,561.1l25.9-26.6h13.4l-30.1,30.2l30.3,36.5h-13.5l-24-29.7l-2.1,2.1v27.6H210v-66.6h10.2V561.1z"/>
		<path fill="#FFFFFF" d="M294.9,564.1l12,14.5l0.4-0.4c1.3-1.4,2.5-2.8,3.7-4.1s2.3-2.7,3.3-4.1l6.6,6.7c-0.8,1.2-1.8,2.5-3.2,4
			c-1.3,1.5-2.9,3.3-4.7,5.2l12.4,15.2h-12.5l-6.6-8.2c-6.1,6.3-12.4,9.4-19,9.4c-5.9,0-10.9-1.9-15-5.7c-4.1-3.8-6-8.5-6-14.1
			c0-6.6,3.2-12.2,9.6-16.6l4.3-2.9c0.1,0,0.1-0.1,0.3-0.2c0.1-0.1,0.4-0.3,0.6-0.4c-4.4-4.7-6.6-9.3-6.6-13.8c0-4.5,1.5-8.2,4.4-11
			c3-2.8,6.8-4.2,11.6-4.2c4.6,0,8.3,1.4,11.3,4.1c3,2.7,4.5,6.2,4.5,10.4c0,2.9-0.8,5.4-2.4,7.8C302,558.1,299.1,560.9,294.9,564.1
			z M286.9,569.7l-0.6,0.4c-4.1,2.9-6.9,5.2-8.4,6.8s-2.2,3.5-2.2,5.4c0,2.8,1.1,5.3,3.3,7.6c2.3,2.2,4.9,3.3,7.6,3.3
			c3.9,0,8.3-2.6,13.4-7.7L286.9,569.7z M289.1,557.1l0.8-0.6c1.4-1,2.6-2,3.5-2.8c0.9-0.8,1.5-1.5,2-2c0.9-1,1.3-2.4,1.3-3.9
			c0-1.8-0.6-3.2-1.8-4.3c-1.2-1.1-2.8-1.6-4.7-1.6c-1.8,0-3.3,0.6-4.6,1.7c-1.3,1-1.8,2.4-1.8,4.1c0,2,0.8,3.9,2.4,5.8l2.5,3
			C288.6,556.5,288.8,556.8,289.1,557.1z"/>
		<path fill="#FFFFFF" d="M343.3,534.5v57.1h19.6v9.5h-29.7v-66.6H343.3z"/>
		<path fill="#FFFFFF" d="M409.3,544h-26.7v16h25.9v9.4h-25.9v22.2h26.7v9.5h-36.7v-66.6h36.7V544z"/>
		<path fill="#FFFFFF" d="M461.5,585H433l-7.4,16.2h-10.8l33-70.8l31.8,70.8h-11L461.5,585z M457.5,575.5l-9.9-22.7l-10.4,22.7
			H457.5z"/>
		<path fill="#FFFFFF" d="M510.4,572.8l20.6,28.4h-12.3l-19-27.2h-1.8v27.2h-10.1v-66.6h11.8c8.8,0,15.2,1.6,19.1,4.9
			c4.3,3.7,6.5,8.5,6.5,14.6c0,4.7-1.3,8.8-4.1,12.2C518.5,569.7,514.9,571.9,510.4,572.8z M497.9,565.2h3.2
			c9.5,0,14.3-3.6,14.3-10.9c0-6.8-4.6-10.2-13.9-10.2h-3.6L497.9,565.2L497.9,565.2z"/>
		<path fill="#FFFFFF" d="M541.1,601.2V530l48.6,50.8v-46.3h10.1v70.7l-48.6-50.7v46.6H541.1z"/>
	</g>
</g>
</svg>
